<?xml version="1.0" encoding="UTF-8" standalone="no"?>
<!DOCTYPE svg PUBLIC "-//W3C//DTD SVG 1.1//EN"
 "http://www.w3.org/Graphics/SVG/1.1/DTD/svg11.dtd">
<!-- Generated by graphviz version 2.38.0 (20140413.2041)
 -->
<!-- Title: %3 Pages: 1 -->
<svg width="560pt" height="97pt"
 viewBox="0.00 0.00 559.78 96.80" xmlns="http://www.w3.org/2000/svg" xmlns:xlink="http://www.w3.org/1999/xlink">
<g id="graph0" class="graph" transform="scale(1 1) rotate(0) translate(4 92.8032)">
<title>%3</title>
<!-- Visualisation -->
<g id="node1" class="node"><title>Visualisation</title>
<ellipse fill="none" stroke="White" cx="492.587" cy="-64" rx="59.3906" ry="18"/>
<text text-anchor="middle" x="492.587" y="-59.8" font-family="Times,serif" font-size="14.00" fill="White">Visualisation!</text>
</g>
<!-- Data collection -->
<g id="node2" class="node"><title>Data collection</title>
<ellipse fill="none" stroke="White" cx="63.8801" cy="-56" rx="63.7604" ry="18"/>
<text text-anchor="middle" x="63.8801" y="-51.8" font-family="Times,serif" font-size="14.00" fill="White">Data collection</text>
</g>
<!-- Data collection&#45;&gt;Visualisation -->
<g id="edge7" class="edge"><title>Data collection&#45;&gt;Visualisation</title>
<path fill="none" stroke="red" d="M105.749,-69.7907C123.374,-75.048 144.359,-80.3988 163.76,-83 256.28,-95.4046 364.561,-84.1681 430.591,-74.4579"/>
<polygon fill="red" stroke="red" points="431.451,-77.868 440.817,-72.9164 430.407,-70.9462 431.451,-77.868"/>
</g>
<!-- Manipulation -->
<g id="node3" class="node"><title>Manipulation</title>
<ellipse fill="none" stroke="White" cx="221.517" cy="-56" rx="57.5151" ry="18"/>
<text text-anchor="middle" x="221.517" y="-51.8" font-family="Times,serif" font-size="14.00" fill="White">Manipulation</text>
</g>
<!-- Data collection&#45;&gt;Manipulation -->
<g id="edge1" class="edge"><title>Data collection&#45;&gt;Manipulation</title>
<path fill="none" stroke="White" d="M123.72,-49.4317C134.726,-49.2171 146.272,-49.1926 157.401,-49.3582"/>
<polygon fill="White" stroke="White" points="157.408,-52.859 167.478,-49.5638 157.551,-45.8605 157.408,-52.859"/>
</g>
<!-- Manipulation&#45;&gt;Visualisation -->
<g id="edge8" class="edge"><title>Manipulation&#45;&gt;Visualisation</title>
<path fill="none" stroke="red" d="M279.251,-57.6868C321.305,-58.9372 378.813,-60.647 423.374,-61.9719"/>
<polygon fill="red" stroke="red" points="423.439,-65.4753 433.538,-62.2741 423.647,-58.4783 423.439,-65.4753"/>
</g>
<!-- Manipulation&#45;&gt;Data collection -->
<g id="edge2" class="edge"><title>Manipulation&#45;&gt;Data collection</title>
<path fill="none" stroke="White" d="M167.478,-62.4362C156.693,-62.7182 145.199,-62.8102 133.952,-62.712"/>
<polygon fill="White" stroke="White" points="133.768,-59.2091 123.72,-62.5683 133.67,-66.2084 133.768,-59.2091"/>
</g>
<!-- Analysis -->
<g id="node4" class="node"><title>Analysis</title>
<ellipse fill="none" stroke="White" cx="356.333" cy="-18" rx="41.118" ry="18"/>
<text text-anchor="middle" x="356.333" y="-13.8" font-family="Times,serif" font-size="14.00" fill="White">Analysis</text>
</g>
<!-- Manipulation&#45;&gt;Analysis -->
<g id="edge3" class="edge"><title>Manipulation&#45;&gt;Analysis</title>
<path fill="none" stroke="White" d="M254.33,-41.0389C269.983,-35.6725 289.194,-29.9518 306.644,-25.3987"/>
<polygon fill="White" stroke="White" points="307.837,-28.7074 316.675,-22.8643 306.122,-21.9207 307.837,-28.7074"/>
</g>
<!-- Analysis&#45;&gt;Visualisation -->
<g id="edge4" class="edge"><title>Analysis&#45;&gt;Visualisation</title>
<path fill="none" stroke="red" d="M389.15,-28.9014C405.113,-34.371 424.801,-41.1169 442.638,-47.2283"/>
<polygon fill="red" stroke="red" points="441.726,-50.6157 452.321,-50.5461 443.995,-43.9936 441.726,-50.6157"/>
</g>
<!-- Analysis&#45;&gt;Data collection -->
<g id="edge6" class="edge"><title>Analysis&#45;&gt;Data collection</title>
<path fill="none" stroke="White" d="M315.073,-17.8746C276.122,-18.3255 215.543,-20.5392 163.76,-29 148.201,-31.5422 131.569,-35.5585 116.47,-39.7241"/>
<polygon fill="White" stroke="White" points="115.46,-36.3723 106.795,-42.4691 117.371,-43.1064 115.46,-36.3723"/>
</g>
<!-- Analysis&#45;&gt;Manipulation -->
<g id="edge5" class="edge"><title>Analysis&#45;&gt;Manipulation</title>
<path fill="none" stroke="White" d="M328.456,-31.2385C315.388,-35.8861 299.11,-40.9367 283.265,-45.3476"/>
<polygon fill="White" stroke="White" points="282.221,-42.0042 273.488,-48.0021 284.055,-48.7597 282.221,-42.0042"/>
</g>
</g>
</svg>
