<?xml version="1.0" encoding="UTF-8" standalone="no"?>
<!DOCTYPE svg PUBLIC "-//W3C//DTD SVG 1.1//EN"
 "http://www.w3.org/Graphics/SVG/1.1/DTD/svg11.dtd">
<!-- Generated by graphviz version 2.38.0 (20140413.2041)
 -->
<!-- Title: %3 Pages: 1 -->
<svg width="554pt" height="44pt"
 viewBox="0.00 0.00 553.89 44.00" xmlns="http://www.w3.org/2000/svg" xmlns:xlink="http://www.w3.org/1999/xlink">
<g id="graph0" class="graph" transform="scale(1 1) rotate(0) translate(4 40)">
<title>%3</title>
<!-- Data collection -->
<g id="node1" class="node"><title>Data collection</title>
<ellipse fill="none" stroke="White" cx="63.8801" cy="-18" rx="63.7604" ry="18"/>
<text text-anchor="middle" x="63.8801" y="-13.8" font-family="Times,serif" font-size="14.00" fill="White">Data collection</text>
</g>
<!-- Manipulation -->
<g id="node2" class="node"><title>Manipulation</title>
<ellipse fill="none" stroke="White" cx="221.517" cy="-18" rx="57.5151" ry="18"/>
<text text-anchor="middle" x="221.517" y="-13.8" font-family="Times,serif" font-size="14.00" fill="White">Manipulation</text>
</g>
<!-- Data collection&#45;&gt;Manipulation -->
<g id="edge1" class="edge"><title>Data collection&#45;&gt;Manipulation</title>
<path fill="none" stroke="White" d="M128.184,-18C136.44,-18 144.923,-18 153.242,-18"/>
<polygon fill="White" stroke="White" points="153.282,-21.5001 163.282,-18 153.282,-14.5001 153.282,-21.5001"/>
</g>
<!-- Analysis -->
<g id="node3" class="node"><title>Analysis</title>
<ellipse fill="none" stroke="White" cx="356.333" cy="-18" rx="41.118" ry="18"/>
<text text-anchor="middle" x="356.333" y="-13.8" font-family="Times,serif" font-size="14.00" fill="White">Analysis</text>
</g>
<!-- Manipulation&#45;&gt;Analysis -->
<g id="edge2" class="edge"><title>Manipulation&#45;&gt;Analysis</title>
<path fill="none" stroke="White" d="M279.614,-18C288.018,-18 296.625,-18 304.882,-18"/>
<polygon fill="White" stroke="White" points="305.112,-21.5001 315.112,-18 305.112,-14.5001 305.112,-21.5001"/>
</g>
<!-- Visualisation -->
<g id="node4" class="node"><title>Visualisation</title>
<ellipse fill="none" stroke="White" cx="489.642" cy="-18" rx="56.0012" ry="18"/>
<text text-anchor="middle" x="489.642" y="-13.8" font-family="Times,serif" font-size="14.00" fill="White">Visualisation</text>
</g>
<!-- Analysis&#45;&gt;Visualisation -->
<g id="edge3" class="edge"><title>Analysis&#45;&gt;Visualisation</title>
<path fill="none" stroke="White" d="M397.444,-18C405.575,-18 414.326,-18 423.074,-18"/>
<polygon fill="White" stroke="White" points="423.306,-21.5001 433.306,-18 423.306,-14.5001 423.306,-21.5001"/>
</g>
</g>
</svg>
